<svg width="454" height="412" viewBox="0 0 454 412" fill="none" xmlns="http://www.w3.org/2000/svg">
<ellipse cx="226.968" cy="206" rx="226.968" ry="206" fill="white"/>
<g clip-path="url(#clip0_1177_1894)">
<path d="M225.444 112.999C231.608 112.999 236.604 108.008 236.604 101.852C236.604 95.6957 231.608 90.7051 225.444 90.7051C219.281 90.7051 214.285 95.6957 214.285 101.852C214.285 108.008 219.281 112.999 225.444 112.999Z" fill="#FD6584"/>
<path d="M250.42 96.5736C250.105 95.5428 249.496 94.6264 248.666 93.9373C247.837 93.2483 246.824 92.8165 245.752 92.6952C245.727 92.6931 245.701 92.6931 245.676 92.6952C245.646 92.6858 245.616 92.6789 245.584 92.6744C241.848 92.1901 237.694 93.3674 234.898 95.9307C233.86 96.8672 233.03 98.0106 232.461 99.2871C231.943 98.58 231.26 98.0096 230.471 97.6256C229.682 97.2415 228.812 97.0552 227.935 97.0829C226.804 97.1576 225.723 97.5789 224.841 98.2894C223.958 98.9999 223.316 99.9649 223.003 101.053C222.968 101.186 222.978 101.326 223.03 101.454C223.082 101.581 223.174 101.688 223.291 101.759C223.627 102.046 224.027 102.249 224.457 102.351C225.381 102.548 226.313 102.727 227.245 102.89C229.067 103.207 230.899 103.465 232.741 103.662C233.957 103.792 235.176 103.895 236.398 103.971C238.922 104.13 241.459 104.167 243.988 104.088C245.242 104.046 246.445 104.005 247.591 103.454C248.425 103.044 249.138 102.423 249.659 101.654C250.15 100.914 250.472 100.076 250.604 99.1982C250.735 98.3204 250.673 97.4245 250.42 96.5736Z" fill="#E6E6E6"/>
<path d="M227.462 112.813C227.441 112.346 227.363 111.884 227.228 111.436C226.912 110.405 226.301 109.489 225.471 108.8C224.641 108.111 223.628 107.679 222.556 107.557C222.532 107.555 222.508 107.555 222.485 107.557C222.453 107.548 222.421 107.541 222.388 107.536C220.321 107.283 218.222 107.499 216.249 108.167C213.215 109.181 210.552 111.227 209.269 114.149C208.75 113.442 208.067 112.871 207.277 112.487C206.488 112.103 205.616 111.917 204.739 111.945C203.608 112.02 202.527 112.441 201.645 113.151C200.762 113.862 200.12 114.827 199.807 115.915C199.775 116.048 199.785 116.188 199.837 116.315C199.888 116.441 199.979 116.548 200.095 116.621C200.432 116.907 200.832 117.11 201.261 117.213C202.189 117.41 203.117 117.589 204.053 117.752C205.876 118.069 207.706 118.327 209.545 118.524C213.281 118.925 217.04 119.067 220.796 118.95C222.046 118.908 223.254 118.867 224.399 118.316C225.232 117.906 225.944 117.285 226.463 116.516C227.196 115.426 227.547 114.124 227.462 112.813Z" fill="#E6E6E6"/>
<path d="M372.802 248.07C372.962 255.67 371.912 263.248 369.691 270.519C369.613 270.783 369.52 271.047 369.427 271.311H323.639C324.294 268.092 325.333 264.962 326.734 261.99C330.545 253.911 336.766 246.998 342.909 240.131C351.37 230.67 359.629 221.287 360.935 208.983C364.289 214.09 366.965 219.609 368.898 225.404C366.532 226.279 364.36 227.609 362.506 229.319C361.993 229.8 361.448 230.499 361.713 231.167C361.961 231.727 362.646 231.913 363.252 232.037C364.714 232.317 366.176 232.597 367.638 232.861C368.789 233.094 369.956 233.311 371.122 233.529C372.147 238.311 372.71 243.18 372.802 248.07Z" fill="#F2F2F2"/>
<path d="M411.264 243.037C403.923 247.495 399.257 254.393 395.447 262.114C392.131 262.869 389.07 264.476 386.566 266.775C386.037 267.256 385.493 267.955 385.773 268.623C386.006 269.183 386.706 269.369 387.313 269.493C388.759 269.773 390.237 270.053 391.683 270.317C391.543 270.643 391.403 270.985 391.263 271.311H342.738C344.941 268.344 347.38 265.559 350.032 262.984C350.608 262.409 351.199 261.866 351.805 261.306C357.991 255.722 365.094 251.245 372.802 248.07C384.945 242.999 398.223 241.262 411.264 243.037Z" fill="#F2F2F2"/>
<path d="M350.826 271.311H307.62C307.384 267.855 307.404 264.386 307.682 260.933C309.408 239.603 321.026 219.283 338.554 206.979C336.315 214.948 337.466 222.872 339.799 230.826C339.472 230.934 339.145 231.028 338.85 231.152C336.484 232.028 334.312 233.358 332.458 235.067C331.944 235.548 331.4 236.248 331.664 236.916C331.898 237.475 332.598 237.661 333.204 237.786C334.666 238.065 336.128 238.345 337.574 238.609C338.741 238.842 339.907 239.059 341.074 239.293C341.618 239.386 342.163 239.494 342.707 239.603C342.785 239.79 342.831 239.961 342.909 240.131C345.646 247.666 348.633 255.263 350.032 262.984C350.379 264.922 350.618 266.877 350.748 268.841C350.794 269.664 350.826 270.488 350.826 271.311Z" fill="#F2F2F2"/>
<path d="M115.349 248.07C115.509 255.67 114.459 263.248 112.238 270.519C112.16 270.783 112.067 271.047 111.974 271.311H66.1859C66.8405 268.092 67.8796 264.962 69.281 261.99C73.0914 253.911 79.3126 246.998 85.456 240.131C93.9168 230.67 102.175 221.287 103.482 208.983C106.836 214.09 109.512 219.609 111.445 225.404C109.079 226.279 106.907 227.609 105.053 229.319C104.539 229.8 103.995 230.499 104.26 231.167C104.508 231.727 105.193 231.913 105.799 232.037C107.261 232.317 108.723 232.597 110.185 232.861C111.336 233.094 112.503 233.311 113.669 233.529C114.694 238.311 115.257 243.18 115.349 248.07Z" fill="#F2F2F2"/>
<path d="M153.811 243.037C146.47 247.495 141.804 254.393 137.994 262.114C134.678 262.869 131.617 264.476 129.113 266.775C128.584 267.256 128.04 267.955 128.32 268.623C128.553 269.183 129.253 269.369 129.86 269.493C131.306 269.773 132.784 270.053 134.23 270.317C134.09 270.643 133.95 270.985 133.81 271.311H85.2849C87.4877 268.344 89.9271 265.559 92.5792 262.984C93.1547 262.409 93.7457 261.866 94.3523 261.306C100.538 255.722 107.641 251.245 115.349 248.07C127.492 242.999 140.77 241.262 153.811 243.037Z" fill="#F2F2F2"/>
<path d="M93.3725 271.311H50.1664C49.9305 267.855 49.9513 264.386 50.2287 260.933C51.955 239.603 63.573 219.283 81.1012 206.979C78.8616 214.948 80.0125 222.872 82.3454 230.826C82.0189 230.934 81.6922 231.028 81.3967 231.152C79.0305 232.028 76.8589 233.358 75.0045 235.067C74.4912 235.548 73.9469 236.248 74.2113 236.916C74.4445 237.475 75.1444 237.661 75.751 237.786C77.2129 238.065 78.6749 238.345 80.1213 238.609C81.2878 238.842 82.4543 239.059 83.6208 239.293C84.1651 239.386 84.7095 239.494 85.2538 239.603C85.3315 239.79 85.3782 239.961 85.456 240.131C88.1933 247.666 91.1795 255.263 92.5793 262.984C92.9257 264.922 93.1646 266.877 93.2947 268.841C93.3414 269.664 93.3725 270.488 93.3725 271.311Z" fill="#F2F2F2"/>
<path d="M254.222 253.192L292.827 256.615L293.241 256.653V92.1097C293.103 92.0137 292.965 91.9177 292.827 91.8217C284.782 86.2002 276.078 81.5821 266.911 78.0701L264.938 105.248L264.758 107.736L262.806 134.688L262.205 142.979L254.293 252.232L254.222 253.192Z" fill="#E6E6E6"/>
<path d="M158.751 89.0454C158.475 89.2207 158.199 89.396 157.924 89.5797V256.653L158.751 256.578L196.939 253.192L196.868 252.232L188.956 142.979L188.354 134.688L186.402 107.736L186.223 105.248L184.154 76.7466C175.232 79.8356 166.706 83.9637 158.751 89.0454Z" fill="#E6E6E6"/>
<path d="M157.924 89.5798C157.368 89.9388 156.812 90.3062 156.264 90.6777V258.932C156.264 263.136 158.76 266.66 162.095 267.557C162.64 267.705 163.202 267.779 163.766 267.779H287.812C288.375 267.779 288.936 267.705 289.48 267.557C290.719 267.214 291.843 266.541 292.731 265.612C294.425 263.803 295.351 261.409 295.314 258.932V93.6042C294.629 93.0991 293.939 92.5981 293.241 92.1097C293.103 92.0136 292.965 91.9176 292.827 91.8216V258.932C292.828 259.474 292.764 260.013 292.635 260.54C292.046 263.023 290.102 264.844 287.812 264.844H163.766C161 264.844 158.751 262.193 158.751 258.932V89.0454C158.475 89.2208 158.199 89.3961 157.924 89.5798Z" fill="#E6E6E6"/>
<path d="M294.071 105.249H157.507V107.737H294.071V105.249Z" fill="#E6E6E6"/>
<path d="M252.245 73.5153C251.418 73.3108 250.59 73.1187 249.754 72.9392V140.491H252.245V73.5153Z" fill="#E6E6E6"/>
<path d="M201.824 72.1001C200.993 72.2546 200.161 72.4132 199.333 72.5844V140.491H201.824V72.1001Z" fill="#E6E6E6"/>
<path d="M130.732 263.424C130.732 264.852 131.005 266.266 131.539 267.591C131.744 268.104 131.988 268.601 132.27 269.077C132.634 269.697 133.057 270.282 133.532 270.822C134.582 272.017 135.876 272.974 137.326 273.63C138.776 274.286 140.35 274.625 141.941 274.625H305.487C308.46 274.625 311.311 273.445 313.413 271.346C315.515 269.246 316.696 266.398 316.696 263.428C316.696 260.459 315.515 257.611 313.413 255.511C311.311 253.411 308.46 252.232 305.487 252.232H141.941C138.97 252.235 136.121 253.415 134.02 255.513C131.919 257.611 130.736 260.456 130.732 263.424Z" fill="#E6E6E6"/>
<path d="M157.507 142.98L293.24 142.98V134.687L157.507 134.687V142.98Z" fill="#E6E6E6"/>
<path d="M231.185 136.76H219.562C219.562 135.551 220.043 134.391 220.9 133.536C221.756 132.68 222.917 132.2 224.128 132.2H226.619C227.218 132.2 227.812 132.318 228.366 132.547C228.92 132.776 229.423 133.112 229.847 133.536C230.271 133.959 230.608 134.462 230.837 135.015C231.067 135.568 231.185 136.162 231.185 136.76Z" fill="#E6E6E6"/>
<path d="M43.4071 269.82C47.0379 274.117 50.965 278.156 55.1597 281.906H392.264C396.459 278.156 400.386 274.117 404.017 269.82H43.4071Z" fill="#3F3D56"/>
<path d="M209.201 229.404V272.22H239.23V229.404C239.231 229.096 239.132 228.796 238.95 228.548C238.767 228.3 238.509 228.118 238.215 228.027C238.076 227.981 237.93 227.958 237.784 227.96H210.651C210.461 227.959 210.273 227.997 210.097 228.069C209.921 228.141 209.761 228.248 209.626 228.382C209.492 228.516 209.385 228.675 209.312 228.851C209.239 229.026 209.201 229.214 209.201 229.404ZM220.92 244.116C220.928 243.272 221.269 242.465 221.87 241.871C222.47 241.277 223.281 240.944 224.126 240.944C224.971 240.944 225.782 241.277 226.382 241.871C226.982 242.465 227.323 243.272 227.331 244.116V249.084C227.327 249.93 226.987 250.741 226.387 251.338C225.786 251.935 224.973 252.27 224.126 252.27C223.278 252.27 222.466 251.935 221.865 251.338C221.264 250.741 220.925 249.93 220.92 249.084V244.116Z" fill="#2F2E41"/>
<path d="M209.109 270.851V274.98C209.11 275.194 209.195 275.399 209.346 275.55C209.497 275.702 209.702 275.788 209.916 275.79H238.516C238.73 275.789 238.935 275.703 239.086 275.551C239.237 275.399 239.322 275.194 239.322 274.98V270.851H209.109Z" fill="#3F3D56"/>
<path d="M161.961 164.896V243.072C161.962 244.069 162.358 245.024 163.064 245.728C163.769 246.433 164.725 246.829 165.722 246.83H281.702C282.699 246.829 283.655 246.433 284.361 245.728C285.066 245.024 285.462 244.069 285.463 243.072V164.896C285.461 163.901 285.064 162.947 284.359 162.243C283.654 161.54 282.698 161.144 281.702 161.143H165.722C164.726 161.144 163.771 161.54 163.066 162.243C162.361 162.947 161.963 163.901 161.961 164.896Z" fill="#3F3D56"/>
<path d="M164.682 165.869V242.108C164.683 242.64 164.895 243.15 165.272 243.527C165.648 243.903 166.159 244.115 166.692 244.116H280.736C281.269 244.115 281.78 243.903 282.157 243.527C282.534 243.15 282.746 242.64 282.747 242.108V165.869C282.747 165.336 282.535 164.825 282.158 164.448C281.781 164.07 281.27 163.858 280.736 163.857H166.692C166.159 163.858 165.647 164.07 165.27 164.448C164.894 164.825 164.682 165.336 164.682 165.869Z" fill="#212529"/>
<path d="M187.936 276.762C188.052 276.908 188.2 277.025 188.368 277.105C188.536 277.186 188.72 277.227 188.906 277.226H256.755C256.94 277.226 257.123 277.184 257.291 277.104C257.458 277.024 257.606 276.908 257.723 276.764C257.84 276.62 257.923 276.452 257.967 276.272C258.01 276.092 258.013 275.904 257.975 275.723L256.922 270.726C256.878 270.522 256.784 270.332 256.648 270.174C256.513 270.016 256.339 269.894 256.144 269.82C256.003 269.765 255.853 269.736 255.701 269.736H189.955C189.803 269.736 189.653 269.765 189.512 269.82C189.317 269.894 189.144 270.016 189.008 270.174C188.872 270.332 188.778 270.522 188.734 270.726L187.681 275.723C187.644 275.904 187.647 276.092 187.691 276.271C187.735 276.451 187.819 276.619 187.936 276.762Z" fill="#2F2E41"/>
<path d="M253.334 271.889H255.016C255.128 271.889 255.22 271.797 255.22 271.685V270.84C255.22 270.728 255.128 270.636 255.016 270.636H253.334C253.221 270.636 253.13 270.728 253.13 270.84V271.685C253.13 271.797 253.221 271.889 253.334 271.889Z" fill="#3F3D56"/>
<path d="M249.154 271.889H250.836C250.949 271.889 251.04 271.797 251.04 271.685V270.84C251.04 270.728 250.949 270.636 250.836 270.636H249.154C249.042 270.636 248.95 270.728 248.95 270.84V271.685C248.95 271.797 249.042 271.889 249.154 271.889Z" fill="#3F3D56"/>
<path d="M244.975 271.889H246.657C246.769 271.889 246.861 271.797 246.861 271.685V270.84C246.861 270.728 246.769 270.636 246.657 270.636H244.975C244.862 270.636 244.771 270.728 244.771 270.84V271.685C244.771 271.797 244.862 271.889 244.975 271.889Z" fill="#3F3D56"/>
<path d="M240.796 271.889H242.477C242.59 271.889 242.681 271.797 242.681 271.685V270.84C242.681 270.728 242.59 270.636 242.477 270.636H240.796C240.683 270.636 240.592 270.728 240.592 270.84V271.685C240.592 271.797 240.683 271.889 240.796 271.889Z" fill="#3F3D56"/>
<path d="M236.616 271.889H238.298C238.41 271.889 238.502 271.797 238.502 271.685V270.84C238.502 270.728 238.41 270.636 238.298 270.636H236.616C236.503 270.636 236.412 270.728 236.412 270.84V271.685C236.412 271.797 236.503 271.889 236.616 271.889Z" fill="#3F3D56"/>
<path d="M232.437 271.889H234.118C234.231 271.889 234.322 271.797 234.322 271.685V270.84C234.322 270.728 234.231 270.636 234.118 270.636H232.437C232.324 270.636 232.233 270.728 232.233 270.84V271.685C232.233 271.797 232.324 271.889 232.437 271.889Z" fill="#3F3D56"/>
<path d="M228.257 271.889H229.939C230.052 271.889 230.143 271.797 230.143 271.685V270.84C230.143 270.728 230.052 270.636 229.939 270.636H228.257C228.145 270.636 228.053 270.728 228.053 270.84V271.685C228.053 271.797 228.145 271.889 228.257 271.889Z" fill="#3F3D56"/>
<path d="M224.078 271.889H225.759C225.872 271.889 225.964 271.797 225.964 271.685V270.84C225.964 270.728 225.872 270.636 225.759 270.636H224.078C223.965 270.636 223.874 270.728 223.874 270.84V271.685C223.874 271.797 223.965 271.889 224.078 271.889Z" fill="#3F3D56"/>
<path d="M219.898 271.889H221.58C221.693 271.889 221.784 271.797 221.784 271.685V270.84C221.784 270.728 221.693 270.636 221.58 270.636H219.898C219.786 270.636 219.694 270.728 219.694 270.84V271.685C219.694 271.797 219.786 271.889 219.898 271.889Z" fill="#3F3D56"/>
<path d="M215.719 271.889H217.401C217.513 271.889 217.605 271.797 217.605 271.685V270.84C217.605 270.728 217.513 270.636 217.401 270.636H215.719C215.606 270.636 215.515 270.728 215.515 270.84V271.685C215.515 271.797 215.606 271.889 215.719 271.889Z" fill="#3F3D56"/>
<path d="M211.54 271.889H213.221C213.334 271.889 213.425 271.797 213.425 271.685V270.84C213.425 270.728 213.334 270.636 213.221 270.636H211.54C211.427 270.636 211.336 270.728 211.336 270.84V271.685C211.336 271.797 211.427 271.889 211.54 271.889Z" fill="#3F3D56"/>
<path d="M207.36 271.889H209.042C209.154 271.889 209.246 271.797 209.246 271.685V270.84C209.246 270.728 209.154 270.636 209.042 270.636H207.36C207.247 270.636 207.156 270.728 207.156 270.84V271.685C207.156 271.797 207.247 271.889 207.36 271.889Z" fill="#3F3D56"/>
<path d="M203.181 271.889H204.862C204.975 271.889 205.066 271.797 205.066 271.685V270.84C205.066 270.728 204.975 270.636 204.862 270.636H203.181C203.068 270.636 202.977 270.728 202.977 270.84V271.685C202.977 271.797 203.068 271.889 203.181 271.889Z" fill="#3F3D56"/>
<path d="M199.001 271.889H200.683C200.796 271.889 200.887 271.797 200.887 271.685V270.84C200.887 270.728 200.796 270.636 200.683 270.636H199.001C198.889 270.636 198.797 270.728 198.797 270.84V271.685C198.797 271.797 198.889 271.889 199.001 271.889Z" fill="#3F3D56"/>
<path d="M194.822 271.889H196.503C196.616 271.889 196.708 271.797 196.708 271.685V270.84C196.708 270.728 196.616 270.636 196.503 270.636H194.822C194.709 270.636 194.618 270.728 194.618 270.84V271.685C194.618 271.797 194.709 271.889 194.822 271.889Z" fill="#3F3D56"/>
<path d="M190.642 271.889H192.324C192.437 271.889 192.528 271.797 192.528 271.685V270.84C192.528 270.728 192.437 270.636 192.324 270.636H190.642C190.53 270.636 190.438 270.728 190.438 270.84V271.685C190.438 271.797 190.53 271.889 190.642 271.889Z" fill="#3F3D56"/>
<path d="M253.383 273.976H255.065C255.178 273.976 255.269 273.885 255.269 273.772V272.927C255.269 272.815 255.178 272.724 255.065 272.724H253.383C253.271 272.724 253.179 272.815 253.179 272.927V273.772C253.179 273.885 253.271 273.976 253.383 273.976Z" fill="#3F3D56"/>
<path d="M249.204 273.976H250.886C250.998 273.976 251.09 273.885 251.09 273.772V272.927C251.09 272.815 250.998 272.724 250.886 272.724H249.204C249.091 272.724 249 272.815 249 272.927V273.772C249 273.885 249.091 273.976 249.204 273.976Z" fill="#3F3D56"/>
<path d="M245.024 273.976H246.706C246.819 273.976 246.91 273.885 246.91 273.772V272.927C246.91 272.815 246.819 272.724 246.706 272.724H245.024C244.912 272.724 244.82 272.815 244.82 272.927V273.772C244.82 273.885 244.912 273.976 245.024 273.976Z" fill="#3F3D56"/>
<path d="M240.845 273.976H242.527C242.639 273.976 242.731 273.885 242.731 273.772V272.927C242.731 272.815 242.639 272.724 242.527 272.724H240.845C240.732 272.724 240.641 272.815 240.641 272.927V273.772C240.641 273.885 240.732 273.976 240.845 273.976Z" fill="#3F3D56"/>
<path d="M236.666 273.976H238.347C238.46 273.976 238.551 273.885 238.551 273.772V272.927C238.551 272.815 238.46 272.724 238.347 272.724H236.666C236.553 272.724 236.462 272.815 236.462 272.927V273.772C236.462 273.885 236.553 273.976 236.666 273.976Z" fill="#3F3D56"/>
<path d="M232.486 273.976H234.168C234.28 273.976 234.372 273.885 234.372 273.772V272.927C234.372 272.815 234.28 272.724 234.168 272.724H232.486C232.373 272.724 232.282 272.815 232.282 272.927V273.772C232.282 273.885 232.373 273.976 232.486 273.976Z" fill="#3F3D56"/>
<path d="M228.307 273.976H229.988C230.101 273.976 230.192 273.885 230.192 273.772V272.927C230.192 272.815 230.101 272.724 229.988 272.724H228.307C228.194 272.724 228.103 272.815 228.103 272.927V273.772C228.103 273.885 228.194 273.976 228.307 273.976Z" fill="#3F3D56"/>
<path d="M224.127 273.976H225.809C225.922 273.976 226.013 273.885 226.013 273.772V272.927C226.013 272.815 225.922 272.724 225.809 272.724H224.127C224.015 272.724 223.923 272.815 223.923 272.927V273.772C223.923 273.885 224.015 273.976 224.127 273.976Z" fill="#3F3D56"/>
<path d="M219.948 273.976H221.629C221.742 273.976 221.833 273.885 221.833 273.772V272.927C221.833 272.815 221.742 272.724 221.629 272.724H219.948C219.835 272.724 219.744 272.815 219.744 272.927V273.772C219.744 273.885 219.835 273.976 219.948 273.976Z" fill="#3F3D56"/>
<path d="M215.768 273.976H217.45C217.563 273.976 217.654 273.885 217.654 273.772V272.927C217.654 272.815 217.563 272.724 217.45 272.724H215.768C215.656 272.724 215.564 272.815 215.564 272.927V273.772C215.564 273.885 215.656 273.976 215.768 273.976Z" fill="#3F3D56"/>
<path d="M211.589 273.976H213.271C213.383 273.976 213.475 273.885 213.475 273.772V272.927C213.475 272.815 213.383 272.724 213.271 272.724H211.589C211.476 272.724 211.385 272.815 211.385 272.927V273.772C211.385 273.885 211.476 273.976 211.589 273.976Z" fill="#3F3D56"/>
<path d="M207.409 273.976H209.091C209.204 273.976 209.295 273.885 209.295 273.772V272.927C209.295 272.815 209.204 272.724 209.091 272.724H207.409C207.297 272.724 207.205 272.815 207.205 272.927V273.772C207.205 273.885 207.297 273.976 207.409 273.976Z" fill="#3F3D56"/>
<path d="M203.23 273.976H204.912C205.024 273.976 205.116 273.885 205.116 273.772V272.927C205.116 272.815 205.024 272.724 204.912 272.724H203.23C203.117 272.724 203.026 272.815 203.026 272.927V273.772C203.026 273.885 203.117 273.976 203.23 273.976Z" fill="#3F3D56"/>
<path d="M199.051 273.976H200.732C200.845 273.976 200.936 273.885 200.936 273.772V272.927C200.936 272.815 200.845 272.724 200.732 272.724H199.051C198.938 272.724 198.847 272.815 198.847 272.927V273.772C198.847 273.885 198.938 273.976 199.051 273.976Z" fill="#3F3D56"/>
<path d="M194.871 273.976H196.553C196.665 273.976 196.757 273.885 196.757 273.772V272.927C196.757 272.815 196.665 272.724 196.553 272.724H194.871C194.758 272.724 194.667 272.815 194.667 272.927V273.772C194.667 273.885 194.758 273.976 194.871 273.976Z" fill="#3F3D56"/>
<path d="M190.692 273.976H192.373C192.486 273.976 192.578 273.885 192.578 273.772V272.927C192.578 272.815 192.486 272.724 192.373 272.724H190.692C190.579 272.724 190.488 272.815 190.488 272.927V273.772C190.488 273.885 190.579 273.976 190.692 273.976Z" fill="#3F3D56"/>
<path d="M218.694 276.481H235.004C235.116 276.481 235.208 276.39 235.208 276.277V275.432C235.208 275.32 235.116 275.229 235.004 275.229H218.694C218.581 275.229 218.49 275.32 218.49 275.432V276.277C218.49 276.39 218.581 276.481 218.694 276.481Z" fill="#3F3D56"/>
<path d="M172.423 174.359H279.134C279.244 174.357 279.35 174.311 279.428 174.232C279.505 174.152 279.549 174.046 279.549 173.935C279.549 173.824 279.505 173.718 279.428 173.639C279.35 173.559 279.244 173.514 279.134 173.511H172.423C172.312 173.514 172.206 173.559 172.129 173.639C172.051 173.718 172.008 173.824 172.008 173.935C172.008 174.046 172.051 174.152 172.129 174.232C172.206 174.311 172.312 174.357 172.423 174.359Z" fill="#3F3D56"/>
<path d="M271.87 171.347C273.243 171.347 274.357 170.21 274.357 168.807C274.357 167.405 273.243 166.268 271.87 166.268C270.496 166.268 269.383 167.405 269.383 168.807C269.383 170.21 270.496 171.347 271.87 171.347Z" fill="#3F3D56"/>
<path d="M263.278 171.347C264.652 171.347 265.765 170.21 265.765 168.807C265.765 167.405 264.652 166.268 263.278 166.268C261.905 166.268 260.791 167.405 260.791 168.807C260.791 170.21 261.905 171.347 263.278 171.347Z" fill="#3F3D56"/>
<path d="M254.687 171.347C256.061 171.347 257.174 170.21 257.174 168.807C257.174 167.405 256.061 166.268 254.687 166.268C253.314 166.268 252.2 167.405 252.2 168.807C252.2 170.21 253.314 171.347 254.687 171.347Z" fill="#3F3D56"/>
<path d="M177.141 167.359C177.14 167.419 177.152 167.479 177.175 167.534C177.197 167.59 177.231 167.64 177.273 167.683C177.315 167.726 177.366 167.76 177.421 167.783C177.477 167.806 177.536 167.818 177.596 167.818H183.698C183.819 167.816 183.934 167.766 184.018 167.68C184.102 167.593 184.149 167.478 184.149 167.357C184.149 167.237 184.102 167.121 184.018 167.035C183.934 166.948 183.819 166.899 183.698 166.896H177.596C177.474 166.897 177.358 166.947 177.273 167.034C177.187 167.12 177.14 167.237 177.141 167.359Z" fill="#3F3D56"/>
<path d="M177.141 169.092C177.14 169.152 177.152 169.211 177.175 169.267C177.197 169.322 177.231 169.373 177.273 169.416C177.315 169.458 177.366 169.492 177.421 169.515C177.477 169.539 177.536 169.551 177.596 169.551H183.698C183.819 169.548 183.934 169.499 184.018 169.412C184.103 169.326 184.15 169.21 184.15 169.09C184.15 168.969 184.103 168.853 184.018 168.767C183.934 168.681 183.819 168.631 183.698 168.628H177.596C177.474 168.63 177.358 168.679 177.273 168.766C177.187 168.853 177.14 168.97 177.141 169.092Z" fill="#3F3D56"/>
<path d="M177.141 170.82C177.14 170.942 177.187 171.059 177.273 171.146C177.358 171.232 177.474 171.282 177.596 171.283H183.698C183.819 171.281 183.934 171.231 184.018 171.145C184.102 171.058 184.149 170.943 184.149 170.822C184.149 170.702 184.102 170.586 184.018 170.5C183.934 170.413 183.819 170.364 183.698 170.361H177.596C177.536 170.361 177.477 170.373 177.421 170.396C177.366 170.42 177.315 170.454 177.273 170.496C177.231 170.539 177.197 170.589 177.175 170.645C177.152 170.701 177.14 170.76 177.141 170.82Z" fill="#3F3D56"/>
<path d="M179.027 184.21H176.834C176.169 184.21 175.63 184.748 175.63 185.412C175.63 186.076 176.169 186.615 176.834 186.615H179.027C179.691 186.615 180.23 186.076 180.23 185.412C180.23 184.748 179.691 184.21 179.027 184.21Z" fill="#E6E6E6"/>
<path d="M204.103 184.21H201.91C201.246 184.21 200.707 184.748 200.707 185.412C200.707 186.076 201.246 186.615 201.91 186.615H204.103C204.768 186.615 205.307 186.076 205.307 185.412C205.307 184.748 204.768 184.21 204.103 184.21Z" fill="#E6E6E6"/>
<path d="M211.208 184.21H209.015C208.351 184.21 207.812 184.748 207.812 185.412C207.812 186.076 208.351 186.615 209.015 186.615H211.208C211.873 186.615 212.412 186.076 212.412 185.412C212.412 184.748 211.873 184.21 211.208 184.21Z" fill="#E6E6E6"/>
<path d="M197.282 184.01H183.655C182.99 184.01 182.451 184.548 182.451 185.212C182.451 185.876 182.99 186.414 183.655 186.414H197.282C197.947 186.414 198.486 185.876 198.486 185.212C198.486 184.548 197.947 184.01 197.282 184.01Z" fill="#E6E6E6"/>
<path d="M230.718 184.01H217.09C216.425 184.01 215.887 184.548 215.887 185.212C215.887 185.876 216.425 186.414 217.09 186.414H230.718C231.382 186.414 231.921 185.876 231.921 185.212C231.921 184.548 231.382 184.01 230.718 184.01Z" fill="#E6E6E6"/>
<path d="M185.714 189.637H183.521C182.856 189.637 182.317 190.175 182.317 190.839C182.317 191.503 182.856 192.042 183.521 192.042H185.714C186.378 192.042 186.917 191.503 186.917 190.839C186.917 190.175 186.378 189.637 185.714 189.637Z" fill="#E6E6E6"/>
<path d="M210.79 189.637H208.598C207.933 189.637 207.394 190.175 207.394 190.839C207.394 191.503 207.933 192.042 208.598 192.042H210.79C211.455 192.042 211.994 191.503 211.994 190.839C211.994 190.175 211.455 189.637 210.79 189.637Z" fill="#E6E6E6"/>
<path d="M217.895 189.637H215.703C215.038 189.637 214.499 190.175 214.499 190.839C214.499 191.503 215.038 192.042 215.703 192.042H217.895C218.56 192.042 219.099 191.503 219.099 190.839C219.099 190.175 218.56 189.637 217.895 189.637Z" fill="#E6E6E6"/>
<path d="M203.969 189.437H190.342C189.677 189.437 189.138 189.975 189.138 190.639C189.138 191.303 189.677 191.841 190.342 191.841H203.969C204.634 191.841 205.173 191.303 205.173 190.639C205.173 189.975 204.634 189.437 203.969 189.437Z" fill="#E6E6E6"/>
<path d="M237.405 189.437H223.777C223.112 189.437 222.574 189.975 222.574 190.639C222.574 191.303 223.112 191.841 223.777 191.841H237.405C238.069 191.841 238.608 191.303 238.608 190.639C238.608 189.975 238.069 189.437 237.405 189.437Z" fill="#E6E6E6"/>
<path d="M192.401 195.064H190.208C189.543 195.064 189.004 195.602 189.004 196.267C189.004 196.931 189.543 197.469 190.208 197.469H192.401C193.065 197.469 193.604 196.931 193.604 196.267C193.604 195.602 193.065 195.064 192.401 195.064Z" fill="#E6E6E6"/>
<path d="M217.477 195.064H215.285C214.62 195.064 214.081 195.602 214.081 196.267C214.081 196.931 214.62 197.469 215.285 197.469H217.477C218.142 197.469 218.681 196.931 218.681 196.267C218.681 195.602 218.142 195.064 217.477 195.064Z" fill="#E6E6E6"/>
<path d="M224.582 195.064H222.39C221.725 195.064 221.186 195.602 221.186 196.267C221.186 196.931 221.725 197.469 222.39 197.469H224.582C225.247 197.469 225.786 196.931 225.786 196.267C225.786 195.602 225.247 195.064 224.582 195.064Z" fill="#E6E6E6"/>
<path d="M210.656 194.864H197.029C196.364 194.864 195.825 195.402 195.825 196.066C195.825 196.73 196.364 197.268 197.029 197.268H210.656C211.321 197.268 211.86 196.73 211.86 196.066C211.86 195.402 211.321 194.864 210.656 194.864Z" fill="#E6E6E6"/>
<path d="M244.092 194.864H230.464C229.8 194.864 229.261 195.402 229.261 196.066C229.261 196.73 229.8 197.268 230.464 197.268H244.092C244.757 197.268 245.295 196.73 245.295 196.066C245.295 195.402 244.757 194.864 244.092 194.864Z" fill="#E6E6E6"/>
<path d="M199.088 200.491H196.895C196.23 200.491 195.692 201.03 195.692 201.694C195.692 202.358 196.23 202.896 196.895 202.896H199.088C199.753 202.896 200.291 202.358 200.291 201.694C200.291 201.03 199.753 200.491 199.088 200.491Z" fill="#E6E6E6"/>
<path d="M224.164 200.491H221.972C221.307 200.491 220.768 201.03 220.768 201.694C220.768 202.358 221.307 202.896 221.972 202.896H224.164C224.829 202.896 225.368 202.358 225.368 201.694C225.368 201.03 224.829 200.491 224.164 200.491Z" fill="#E6E6E6"/>
<path d="M231.269 200.491H229.077C228.412 200.491 227.873 201.03 227.873 201.694C227.873 202.358 228.412 202.896 229.077 202.896H231.269C231.934 202.896 232.473 202.358 232.473 201.694C232.473 201.03 231.934 200.491 231.269 200.491Z" fill="#E6E6E6"/>
<path d="M217.343 200.291H203.716C203.051 200.291 202.512 200.829 202.512 201.493C202.512 202.157 203.051 202.696 203.716 202.696H217.343C218.008 202.696 218.547 202.157 218.547 201.493C218.547 200.829 218.008 200.291 217.343 200.291Z" fill="#E6E6E6"/>
<path d="M204.103 222.072H201.91C201.246 222.072 200.707 222.61 200.707 223.274C200.707 223.938 201.246 224.477 201.91 224.477H204.103C204.768 224.477 205.307 223.938 205.307 223.274C205.307 222.61 204.768 222.072 204.103 222.072Z" fill="#E6E6E6"/>
<path d="M211.208 222.072H209.015C208.351 222.072 207.812 222.61 207.812 223.274C207.812 223.938 208.351 224.477 209.015 224.477H211.208C211.873 224.477 212.412 223.938 212.412 223.274C212.412 222.61 211.873 222.072 211.208 222.072Z" fill="#E6E6E6"/>
<path d="M230.718 222.272H217.09C216.425 222.272 215.887 222.811 215.887 223.475C215.887 224.139 216.425 224.677 217.09 224.677H230.718C231.382 224.677 231.921 224.139 231.921 223.475C231.921 222.811 231.382 222.272 230.718 222.272Z" fill="#E6E6E6"/>
<path d="M179.027 222.072H176.834C176.169 222.072 175.63 222.61 175.63 223.274C175.63 223.938 176.169 224.477 176.834 224.477H179.027C179.691 224.477 180.23 223.938 180.23 223.274C180.23 222.61 179.691 222.072 179.027 222.072Z" fill="#E6E6E6"/>
<path d="M197.282 222.272H183.655C182.99 222.272 182.451 222.811 182.451 223.475C182.451 224.139 182.99 224.677 183.655 224.677H197.282C197.947 224.677 198.486 224.139 198.486 223.475C198.486 222.811 197.947 222.272 197.282 222.272Z" fill="#E6E6E6"/>
<path d="M185.714 216.645H183.521C182.856 216.645 182.317 217.183 182.317 217.847C182.317 218.511 182.856 219.05 183.521 219.05H185.714C186.378 219.05 186.917 218.511 186.917 217.847C186.917 217.183 186.378 216.645 185.714 216.645Z" fill="#E6E6E6"/>
<path d="M210.79 216.645H208.598C207.933 216.645 207.394 217.183 207.394 217.847C207.394 218.511 207.933 219.05 208.598 219.05H210.79C211.455 219.05 211.994 218.511 211.994 217.847C211.994 217.183 211.455 216.645 210.79 216.645Z" fill="#E6E6E6"/>
<path d="M217.895 216.645H215.703C215.038 216.645 214.499 217.183 214.499 217.847C214.499 218.511 215.038 219.05 215.703 219.05H217.895C218.56 219.05 219.099 218.511 219.099 217.847C219.099 217.183 218.56 216.645 217.895 216.645Z" fill="#E6E6E6"/>
<path d="M203.969 216.845H190.342C189.677 216.845 189.138 217.384 189.138 218.048C189.138 218.712 189.677 219.25 190.342 219.25H203.969C204.634 219.25 205.173 218.712 205.173 218.048C205.173 217.384 204.634 216.845 203.969 216.845Z" fill="#E6E6E6"/>
<path d="M192.401 211.218H190.208C189.543 211.218 189.004 211.756 189.004 212.42C189.004 213.084 189.543 213.622 190.208 213.622H192.401C193.065 213.622 193.604 213.084 193.604 212.42C193.604 211.756 193.065 211.218 192.401 211.218Z" fill="#E6E6E6"/>
<path d="M217.477 211.218H215.285C214.62 211.218 214.081 211.756 214.081 212.42C214.081 213.084 214.62 213.622 215.285 213.622H217.477C218.142 213.622 218.681 213.084 218.681 212.42C218.681 211.756 218.142 211.218 217.477 211.218Z" fill="#E6E6E6"/>
<path d="M224.582 211.218H222.39C221.725 211.218 221.186 211.756 221.186 212.42C221.186 213.084 221.725 213.622 222.39 213.622H224.582C225.247 213.622 225.786 213.084 225.786 212.42C225.786 211.756 225.247 211.218 224.582 211.218Z" fill="#E6E6E6"/>
<path d="M210.656 211.418H197.029C196.364 211.418 195.825 211.957 195.825 212.621C195.825 213.285 196.364 213.823 197.029 213.823H210.656C211.321 213.823 211.86 213.285 211.86 212.621C211.86 211.957 211.321 211.418 210.656 211.418Z" fill="#E6E6E6"/>
<path d="M199.088 205.791H196.895C196.23 205.791 195.692 206.329 195.692 206.993C195.692 207.657 196.23 208.195 196.895 208.195H199.088C199.753 208.195 200.291 207.657 200.291 206.993C200.291 206.329 199.753 205.791 199.088 205.791Z" fill="#E6E6E6"/>
<path d="M224.164 205.791H221.972C221.307 205.791 220.768 206.329 220.768 206.993C220.768 207.657 221.307 208.195 221.972 208.195H224.164C224.829 208.195 225.368 207.657 225.368 206.993C225.368 206.329 224.829 205.791 224.164 205.791Z" fill="#E6E6E6"/>
<path d="M231.269 205.791H229.077C228.412 205.791 227.873 206.329 227.873 206.993C227.873 207.657 228.412 208.195 229.077 208.195H231.269C231.934 208.195 232.473 207.657 232.473 206.993C232.473 206.329 231.934 205.791 231.269 205.791Z" fill="#E6E6E6"/>
<path d="M217.343 205.991H203.716C203.051 205.991 202.512 206.529 202.512 207.193C202.512 207.857 203.051 208.396 203.716 208.396H217.343C218.008 208.396 218.547 207.857 218.547 207.193C218.547 206.529 218.008 205.991 217.343 205.991Z" fill="#E6E6E6"/>
<path d="M189.651 300.021C189.559 300.067 189.467 300.113 189.375 300.155C188.794 300.443 188.209 300.726 187.619 301.006C185.856 301.845 184.07 302.643 182.261 303.398C177.503 305.386 172.621 307.064 167.646 308.421C166.81 303.215 165.999 290.937 165.222 281.907C165.075 280.208 164.929 278.625 164.783 277.227C164.644 275.391 164.38 273.567 163.993 271.766C163.955 271.625 163.9 271.489 163.83 271.361C163.909 272.084 163.993 274.238 164.072 277.227C164.114 278.625 164.152 280.208 164.194 281.907C164.39 290.599 164.595 302.426 164.8 309.159C164.219 309.301 163.634 309.443 163.048 309.577C162.681 309.665 162.309 309.748 161.937 309.827C161.485 309.928 161.034 310.028 160.583 310.12C160.11 310.22 159.638 310.316 159.166 310.408C151.448 311.922 143.601 312.683 135.736 312.679C135.213 312.679 134.695 312.675 134.173 312.67C134.014 312.67 133.855 312.666 133.692 312.662C133.232 312.654 132.756 312.645 132.271 312.633C122.976 312.376 113.743 311.047 104.754 308.671L105.117 281.907L105.18 277.227L105.205 275.453C104.998 276.023 104.874 276.621 104.837 277.227C104.691 278.367 104.541 279.982 104.39 281.907C103.818 289.321 103.228 301.282 102.618 308.087C95.3918 306.033 90.109 304.158 83.5055 300.86C83.2505 300.735 82.9914 300.605 82.7365 300.476C82.7824 300.155 82.8326 299.833 82.8786 299.503C83.6267 294.31 82.7448 287.551 83.5723 281.907C84.2034 277.552 84.8554 273.369 85.5116 269.821C86.3057 265.55 87.1123 262.194 87.9106 260.561C88.8301 258.678 89.7495 256.825 90.6398 255.051C91.0243 254.287 91.4018 253.537 91.7724 252.8C91.973 252.404 92.1736 252.011 92.37 251.627C93.2644 249.878 94.1087 248.263 94.8819 246.831C95.4252 245.824 95.9268 244.914 96.3865 244.117C96.9256 243.178 97.4021 242.401 97.795 241.813C100.697 237.419 105.014 234.147 110.032 232.54L110.158 232.507L110.279 232.557L110.417 232.62L118.383 229.71L121.94 221.156L140.208 220.033L143.159 222.275L144.667 223.423L146.276 224.646L149.235 226.896L150.075 227.155L151.325 227.539L159.872 230.161L159.96 230.123L160.085 230.157C164.652 231.617 168.649 234.462 171.52 238.297C171.804 238.665 172.068 239.045 172.323 239.429C173.016 240.456 173.953 242.08 175.056 244.117C175.512 244.956 175.992 245.866 176.498 246.831C176.803 247.411 179.436 255.618 181.998 264.001C184.393 271.85 186.725 279.853 187.03 281.907C187.084 282.287 187.143 282.671 187.197 283.051C187.544 285.426 187.887 287.818 188.217 290.152C188.706 293.613 189.182 296.952 189.638 299.937C189.642 299.967 189.646 299.992 189.651 300.021Z" fill="#3F3D56"/>
<path opacity="0.2" d="M170.29 269.802L166.739 256.112L163.603 267.925L170.29 269.802Z" fill="black"/>
<path d="M50.0228 269.643C50.207 270.178 50.5563 270.642 51.0206 270.967C51.4849 271.292 52.0403 271.461 52.607 271.451L63.6791 271.166C64.25 271.155 64.802 270.96 65.2526 270.609C65.7031 270.259 66.0281 269.772 66.1788 269.222L67.7456 252.487C68.3015 252.738 68.9067 252.862 69.5168 252.85C70.5874 252.823 71.6034 252.373 72.3414 251.598C73.0795 250.823 73.479 249.786 73.4521 248.717C73.4252 247.648 72.9742 246.633 72.1981 245.895C71.4221 245.158 70.3847 244.759 69.3141 244.786C69.0703 244.785 68.827 244.811 68.5885 244.861C68.3292 244.581 68.0139 244.358 67.6631 244.207C67.3122 244.056 66.9335 243.98 66.5514 243.984L49.52 244.423C49.3787 244.428 49.2382 244.445 49.0999 244.475C48.7264 244.544 48.3722 244.693 48.061 244.911C47.7499 245.129 47.489 245.411 47.296 245.737C47.1031 246.064 46.9824 246.429 46.9423 246.806C46.9021 247.183 46.9434 247.565 47.0632 247.925L50.0228 269.643ZM68.0669 251.35L69.1818 247.362C69.3087 246.902 69.3116 246.416 69.1903 245.954C69.2444 245.953 69.2922 245.928 69.3463 245.928C70.1107 245.912 70.8503 246.2 71.4027 246.728C71.9552 247.256 72.2755 247.981 72.2934 248.745C72.3113 249.508 72.0253 250.248 71.4982 250.801C70.9711 251.354 70.2459 251.676 69.4815 251.696C68.9873 251.711 68.4982 251.592 68.0669 251.35Z" fill="#2F2E41"/>
<path d="M49.1 244.475C49.4628 246.547 53.5423 248.004 58.4476 247.751C62.9584 247.543 66.6466 245.961 67.3223 244.086C67.0723 244.012 66.8122 243.978 66.5515 243.984L49.5201 244.423C49.3788 244.428 49.2382 244.445 49.1 244.475Z" fill="#3F3D56"/>
<path d="M59.3466 260.447C59.369 260.441 59.3903 260.431 59.4097 260.419L61.8142 258.847C61.8432 258.828 61.8671 258.802 61.8836 258.771C61.9002 258.741 61.9088 258.707 61.9089 258.672C61.9089 258.638 61.9002 258.603 61.8837 258.573C61.8672 258.542 61.8433 258.517 61.8143 258.498L59.3151 256.863C59.2921 256.847 59.2664 256.837 59.2394 256.832C59.2124 256.826 59.1847 256.827 59.1577 256.832C59.1308 256.838 59.1052 256.848 59.0824 256.864C59.0597 256.879 59.0402 256.899 59.0251 256.922C59.0101 256.945 58.9997 256.971 58.9946 256.998C58.9895 257.025 58.9898 257.053 58.9954 257.079C59.0011 257.106 59.012 257.132 59.0276 257.154C59.0431 257.177 59.063 257.196 59.0861 257.211L61.3183 258.672L59.1809 260.07C59.1395 260.097 59.1091 260.137 59.095 260.185C59.0809 260.232 59.0841 260.283 59.1039 260.328C59.1238 260.373 59.1591 260.41 59.2035 260.432C59.248 260.453 59.2987 260.459 59.3466 260.447Z" fill="#212529"/>
<path d="M55.5489 260.622C55.5892 260.611 55.6256 260.589 55.6533 260.558C55.6811 260.527 55.6989 260.489 55.7046 260.448C55.7103 260.406 55.7035 260.364 55.6851 260.327C55.6668 260.29 55.6377 260.259 55.6016 260.238L53.3852 258.969L55.5274 257.379C55.5494 257.363 55.568 257.343 55.5821 257.319C55.5961 257.296 55.6054 257.27 55.6094 257.242C55.6134 257.215 55.612 257.188 55.6054 257.161C55.5987 257.135 55.5868 257.11 55.5705 257.088C55.5541 257.066 55.5336 257.047 55.51 257.033C55.4865 257.019 55.4604 257.01 55.4333 257.006C55.4062 257.002 55.3785 257.003 55.3519 257.01C55.3253 257.016 55.3003 257.028 55.2783 257.045L52.8799 258.824C52.852 258.845 52.8297 258.872 52.815 258.903C52.8004 258.935 52.7937 258.969 52.7958 259.004C52.7978 259.039 52.8084 259.072 52.8267 259.101C52.845 259.131 52.8703 259.155 52.9004 259.173L55.3936 260.6C55.4406 260.627 55.4963 260.635 55.5489 260.622Z" fill="#212529"/>
<path d="M59.1075 261.824C59.1277 261.819 59.147 261.811 59.1647 261.8C59.1882 261.786 59.2086 261.767 59.2249 261.745C59.2411 261.723 59.2528 261.698 59.2593 261.671C59.2658 261.644 59.267 261.617 59.2628 261.59C59.2586 261.563 59.249 261.537 59.2348 261.513L55.8262 255.916C55.7972 255.869 55.7508 255.835 55.697 255.822C55.6433 255.809 55.5866 255.818 55.5394 255.847C55.4922 255.875 55.4583 255.922 55.4451 255.975C55.4319 256.029 55.4406 256.086 55.4691 256.133L58.8776 261.73C58.9009 261.769 58.9358 261.798 58.9771 261.815C59.0185 261.832 59.0642 261.835 59.1075 261.824Z" fill="#212529"/>
<path d="M371.555 300.475C371.3 300.604 371.041 300.734 370.786 300.859C364.182 304.157 358.9 306.032 351.673 308.086C351.063 301.281 350.474 289.32 349.901 281.906C349.751 279.981 349.6 278.366 349.454 277.226C349.417 276.62 349.293 276.022 349.086 275.452L349.111 277.226L349.174 281.906L349.538 308.67C340.549 311.046 331.315 312.375 322.02 312.632C321.536 312.644 321.059 312.653 320.599 312.661C320.436 312.665 320.278 312.669 320.119 312.669C319.596 312.674 319.078 312.678 318.556 312.678C308.761 312.685 299.001 311.503 289.492 309.158C289.697 302.425 289.901 290.598 290.098 281.906C290.14 280.207 290.177 278.624 290.219 277.226C290.298 274.237 290.382 272.083 290.461 271.36C290.391 271.488 290.336 271.624 290.298 271.765C289.911 273.566 289.647 275.39 289.508 277.226C289.362 278.624 289.216 280.207 289.07 281.906C288.292 290.936 287.481 303.214 286.646 308.42C281.67 307.063 276.788 305.385 272.03 303.397C269.522 302.354 267.059 301.228 264.641 300.02C265.101 297.014 265.581 293.645 266.074 290.151C266.459 287.441 266.856 284.657 267.261 281.906C267.888 277.656 289.187 231.763 294.206 230.156L294.332 230.122L294.419 230.16L302.966 227.538L304.216 227.154L305.056 226.895L308.015 224.645L309.624 223.422L311.133 222.274L314.084 220.032L332.352 221.155L335.909 229.709L343.875 232.619L344.012 232.556L344.134 232.506L344.259 232.54C349.277 234.147 353.595 237.418 356.496 241.812C356.889 242.4 357.366 243.177 357.905 244.116C358.365 244.913 358.866 245.824 359.41 246.83C360.183 248.262 361.027 249.877 361.921 251.626C362.118 252.01 362.318 252.403 362.519 252.8C362.891 253.534 363.269 254.284 363.652 255.05C364.542 256.824 365.461 258.678 366.381 260.56C367.179 262.193 367.986 265.549 368.78 269.82C369.436 273.368 370.088 277.552 370.719 281.906C371.547 287.55 370.665 294.309 371.413 299.502C371.459 299.832 371.509 300.154 371.555 300.475Z" fill="#3F3D56"/>
<path d="M317.977 216.961C329.711 216.961 339.224 207.46 339.224 195.739C339.224 184.017 329.711 174.516 317.977 174.516C306.242 174.516 296.73 184.017 296.73 195.739C296.73 207.46 306.242 216.961 317.977 216.961Z" fill="#FFB6B6"/>
<path opacity="0.2" d="M284 269.802L287.551 256.112L290.687 267.925L284 269.802Z" fill="black"/>
<path d="M378.501 260.882C377.231 278.366 378.547 286.064 371.534 300.479C365.153 303.599 358.507 306.144 351.673 308.086C350.963 308.286 350.251 308.481 349.538 308.67C340.549 311.046 331.315 312.375 322.02 312.632C321.536 312.644 321.059 312.653 320.599 312.661C320.436 312.665 320.278 312.669 320.119 312.669C319.596 312.674 319.078 312.678 318.556 312.678C308.761 312.685 299.001 311.503 289.492 309.159C288.539 308.925 287.59 308.678 286.646 308.42C281.67 307.063 276.788 305.385 272.03 303.397C269.522 302.354 267.059 301.228 264.641 300.02C264.093 299.744 263.546 299.469 263.007 299.185C260.236 294.317 258.66 288.398 258.627 281.284C260.545 269.027 374.263 250.311 378.501 260.882Z" fill="#2F2E41"/>
<path opacity="0.2" d="M378.498 263.876C378.563 262.794 378.635 261.676 378.72 260.511C374.482 249.941 260.764 268.656 258.845 280.913C258.851 282.037 258.899 283.128 258.98 284.192C263.625 272.095 371.659 254.307 378.498 263.876Z" fill="black"/>
<path d="M255.799 261.706L265.133 257.045L257.354 236.066L255.304 225.487C255.038 224.112 254.415 222.832 253.498 221.773C252.581 220.714 251.402 219.914 250.079 219.453C248.755 218.992 247.334 218.886 245.957 219.146C244.579 219.406 243.294 220.022 242.23 220.933C240.653 222.283 239.663 224.193 239.469 226.258C239.274 228.324 239.891 230.384 241.188 232.004L248.798 241.505L255.799 261.706Z" fill="#FFB6B6"/>
<path d="M265.133 253.16L252.687 259.375L262.132 288.936C262.81 291.059 264.026 292.971 265.662 294.486C267.297 296.001 269.297 297.069 271.467 297.585C274.143 298.221 276.952 297.99 279.487 296.924C282.023 295.859 284.152 294.014 285.568 291.658L310.613 248.778C312.388 245.823 312.935 242.292 312.139 238.939C311.343 235.586 309.266 232.678 306.352 230.834C304.784 229.842 303.025 229.191 301.189 228.924C299.353 228.656 297.482 228.778 295.696 229.28C293.91 229.783 292.25 230.656 290.824 231.841C289.399 233.027 288.239 234.5 287.42 236.163L272.134 268.699L265.133 253.16Z" fill="#3F3D56"/>
<path d="M130.969 215.497C143.881 215.497 154.347 205.042 154.347 192.145C154.347 179.249 143.881 168.794 130.969 168.794C118.058 168.794 107.592 179.249 107.592 192.145C107.592 205.042 118.058 215.497 130.969 215.497Z" fill="#A0616A"/>
<path d="M107.872 176.054C109.773 173.495 112.505 171.675 114.595 169.268C115.742 167.947 116.694 166.45 117.983 165.267C120.378 163.07 123.727 162.17 126.977 162.058C130.539 161.966 134.072 162.714 137.291 164.24C140.51 165.766 143.323 168.027 145.505 170.841C147.204 169.846 148.902 168.851 150.601 167.856C151.272 169.621 151.943 171.385 152.615 173.15C153.165 172.671 153.868 172.403 154.598 172.393C155.327 172.383 156.037 172.631 156.601 173.094C157.165 173.556 157.547 174.203 157.679 174.92C157.811 175.637 157.684 176.378 157.322 177.01C157.726 175.762 159.579 175.498 160.6 176.322C161.621 177.146 161.894 178.613 161.728 179.914C161.519 181.341 160.887 182.673 159.914 183.739C158.941 184.805 157.671 185.556 156.268 185.895C154.051 186.388 151.471 185.87 149.696 187.286C148.274 188.421 147.844 190.489 146.393 191.587C144.604 192.939 142.076 192.314 139.852 192.613C135.962 193.136 132.882 197.11 133.349 201.003C132.997 199.775 132.627 198.511 131.828 197.513C131.029 196.515 129.684 195.84 128.459 196.207C126.433 196.813 126.102 199.571 126.593 201.625C127.895 207.073 132.828 215.879 132.828 215.879C126.422 218.403 118.79 216.017 113.847 211.227C108.905 206.437 106.33 199.655 105.209 192.868C104.258 187.113 104.393 180.738 107.872 176.054Z" fill="#2F2E41"/>
<path d="M344.603 207.438C349.051 197.252 346.531 187.879 341.109 182.907V182.903C338.978 178.131 336.144 174.449 332.901 173.585C331.333 172.579 329.812 171.397 328.124 170.796C327.337 170.502 326.499 170.37 325.66 170.408C324.821 170.446 323.999 170.653 323.242 171.017L322.381 170.788C321.65 168.922 320.793 168.884 319.84 170.111C316.17 168.404 312.864 167.64 309.922 167.64C300.326 167.64 294.65 175.756 293.146 185.566L301.166 187.7L303.954 183.262L302.667 188.1L307.093 189.273C313.83 198.036 305.768 218.25 295.549 229.497C297.981 228.825 300.404 228.257 302.817 227.794L311.586 214.952L306.152 226.641C308.973 226.228 312.572 226.625 316.505 227.422C317.83 225.694 318.528 223.389 317.842 221.335C318.963 223.502 319.736 225.83 320.132 228.236C328.433 230.261 339.755 231.3 345.857 232.069C350.787 230.461 350.8 212.306 344.603 207.438Z" fill="#2F2E41"/>
<path d="M347.497 172.791C350.754 180.077 344.181 183.211 338.159 183.123C332.718 183.043 328.094 179.224 327.816 173.796C327.682 171.189 328.591 168.636 330.342 166.698C332.093 164.761 334.543 163.597 337.153 163.464C342.588 163.187 345.277 167.828 347.497 172.791Z" fill="#2F2E41"/>
<path d="M196.367 291.403L191.001 282.462L208.843 268.941L216.262 261.117C217.226 260.101 218.439 259.355 219.782 258.954C221.125 258.553 222.55 258.511 223.914 258.832C225.278 259.154 226.534 259.827 227.556 260.785C228.578 261.743 229.331 262.952 229.738 264.292C230.342 266.277 230.151 268.418 229.204 270.265C228.257 272.111 226.629 273.518 224.663 274.189L213.135 278.12L196.367 291.403Z" fill="#A0616A"/>
<path d="M200.245 291.108L191.891 298.063L189.638 299.937L189.375 300.154C188.794 300.442 188.209 300.726 187.619 301.006C185.856 301.845 184.07 302.643 182.261 303.398C177.503 305.386 172.621 307.064 167.646 308.42C166.701 308.679 165.753 308.925 164.8 309.159C164.219 309.301 163.634 309.443 163.048 309.577C162.681 309.664 162.309 309.748 161.937 309.827C161.485 309.927 161.034 310.028 160.583 310.119C160.11 310.22 159.638 310.316 159.166 310.408C157.895 309.2 156.883 307.746 156.192 306.136C155.501 304.526 155.145 302.792 155.145 301.039C155.145 300.927 155.145 300.81 155.149 300.693L156.491 266.322L157.084 251.089C157.176 247.644 158.612 244.371 161.087 241.97C163.562 239.569 166.879 238.23 170.329 238.239C170.73 238.239 171.127 238.26 171.52 238.297C171.804 238.665 172.068 239.045 172.323 239.429C173.016 240.456 173.953 242.08 175.056 244.117C175.512 244.956 175.992 245.866 176.498 246.83C176.803 247.411 179.436 255.618 181.998 264.001L180.87 272.756L178.83 288.536L187.197 283.05L193.09 279.185L193.788 280.349L195.606 283.38L199.117 289.225L200.245 291.108Z" fill="#3F3D56"/>
<path d="M195.665 281.285C195.661 281.994 195.644 282.692 195.606 283.38C195.519 285.281 195.298 287.172 194.946 289.041C194.369 292.18 193.34 295.219 191.891 298.063C191.698 298.443 191.494 298.819 191.285 299.186C190.746 299.47 190.198 299.745 189.65 300.021C189.559 300.067 189.467 300.113 189.375 300.155C187.047 301.311 184.676 302.392 182.261 303.398C177.503 305.386 172.621 307.064 167.646 308.421C166.701 308.679 165.753 308.926 164.8 309.159C162.94 309.619 161.062 310.035 159.166 310.408C151.448 311.922 143.601 312.683 135.736 312.679C135.213 312.679 134.695 312.675 134.173 312.67C134.014 312.67 133.855 312.666 133.692 312.662C133.232 312.654 132.756 312.645 132.271 312.633C122.976 312.376 113.743 311.047 104.754 308.671C104.039 308.483 103.327 308.288 102.618 308.087C95.7847 306.145 89.1382 303.6 82.7573 300.48C75.7442 286.065 77.0607 278.367 75.7902 260.883C78.3981 254.374 122.52 258.971 156.491 266.322C165.711 268.318 174.178 270.518 180.869 272.756C187.782 275.064 192.793 277.411 194.758 279.615C195.217 280.071 195.532 280.652 195.665 281.285Z" fill="#2F2E41"/>
<path opacity="0.2" d="M75.7926 263.876C75.7277 262.794 75.6552 261.676 75.5706 260.511C79.8085 249.941 193.527 268.656 195.445 280.913C195.44 282.037 195.392 283.128 195.311 284.192C190.665 272.095 82.6313 254.307 75.7926 263.876Z" fill="black"/>
</g>
<defs>
<clipPath id="clip0_1177_1894">
<rect width="367.857" height="240.579" fill="white" transform="translate(43.4071 72.1001)"/>
</clipPath>
</defs>
</svg>
